<svg xmlns="http://www.w3.org/2000/svg" width="360" height="88" viewBox="0 0 360 88" role="img" aria-labelledby="title desc">
<title id="title">Knowhere — 把文档拆开，给知识找个家。 文档解析 · 知识提取</title>
<desc id="desc">打开项目</desc>
<rect x=".5" y=".5" width="359" height="81" rx="9" fill="#161e22" stroke="#34423e"/>
<path d="M1 23V10a9 9 0 0 1 9-9h16" fill="none" stroke="#8ed6b5" stroke-width="2"/>
<rect x="13" y="17" width="40" height="44" rx="8" fill="#253a31"/>
<g transform="translate(20 26)" fill="none" stroke="#8ed6b5" stroke-width="1.6" stroke-linecap="round" stroke-linejoin="round"><path d="M13 6C8 3 3 4 2 5v17c4-2 8-1 11 1 3-2 7-3 11-1V5c-3-2-7-1-11 1v17M6 9l4 1m-4 4 4 1m7-5 4-1m-4 6 4-1"/></g>
<g font-family="-apple-system,BlinkMacSystemFont,'Segoe UI','Noto Sans CJK SC','Microsoft YaHei',sans-serif">
<text x="65" y="25" font-size="15.5" font-weight="650" fill="#e4eee7">Knowhere</text>
<text x="339" y="24" text-anchor="end" font-size="10" font-family="ui-monospace,SFMono-Regular,Consolas,monospace" letter-spacing=".5" fill="#dfc17e">KNOWLEDGE</text>
<text x="65" y="46" font-size="13" fill="#bacbc2">把文档拆开，给知识找个家。</text>
<text x="65" y="66" font-size="11" fill="#93a99d">文档解析 · 知识提取</text>
</g>
<path d="M331 63h8m-3-3 3 3-3 3" fill="none" stroke="#8ed6b5" stroke-width="1.4" stroke-linecap="round" stroke-linejoin="round"/>
</svg>
