<svg xmlns="http://www.w3.org/2000/svg" width="360" height="88" viewBox="0 0 360 88" role="img" aria-labelledby="title desc">
<title id="title">nanobot — A lightweight Agent companion. Tool use · Long-term memory</title>
<desc id="desc">打开项目</desc>
<rect x=".5" y=".5" width="359" height="81" rx="9" fill="#fafbf9" stroke="#dce3df"/>
<path d="M1 23V10a9 9 0 0 1 9-9h16" fill="none" stroke="#21826a" stroke-width="2"/>
<rect x="13" y="17" width="40" height="44" rx="8" fill="#eaf2ed"/>
<g transform="translate(20 26)" fill="none" stroke="#21826a" stroke-width="1.6" stroke-linecap="round" stroke-linejoin="round"><rect x="3" y="7" width="20" height="15" rx="4"/><path d="M13 3v4M0 13h3m20 0h3M9 17h8"/><path d="M8 12h2m6 0h2"/></g>
<g font-family="-apple-system,BlinkMacSystemFont,'Segoe UI','Noto Sans CJK SC','Microsoft YaHei',sans-serif">
<text x="65" y="25" font-size="15.5" font-weight="650" fill="#283633">nanobot</text>
<text x="339" y="24" text-anchor="end" font-size="10" font-family="ui-monospace,SFMono-Regular,Consolas,monospace" letter-spacing=".5" fill="#9a711e">AGENT</text>
<text x="65" y="46" font-size="13" fill="#52645e">A lightweight Agent companion.</text>
<text x="65" y="66" font-size="11" fill="#67776f">Tool use · Long-term memory</text>
</g>
<path d="M331 63h8m-3-3 3 3-3 3" fill="none" stroke="#21826a" stroke-width="1.4" stroke-linecap="round" stroke-linejoin="round"/>
</svg>
