<svg xmlns="http://www.w3.org/2000/svg" width="360" height="88" viewBox="0 0 360 88" role="img" aria-labelledby="title desc">
<title id="title">Relax — A training ground for better next moves. Reinforcement learning · Training engine</title>
<desc id="desc">打开项目</desc>
<rect width="360" height="88" fill="#0b1730"/>
<path d="M8 4h338l6 6v65l-6 6H8z" fill="#10233e" stroke="#2b4562"/>
<path d="M8 22V4h23" fill="none" stroke="#72d9cc" stroke-width="1.5"/>
<path d="M332 81h14l6-6" fill="none" stroke="#efc474" stroke-opacity=".55"/>
<rect x="15" y="19" width="38" height="42" rx="5" fill="#16394b"/>
<g transform="translate(20 26)" fill="none" stroke="#72d9cc" stroke-width="1.6" stroke-linecap="round" stroke-linejoin="round"><path d="M2 21h22M4 16l5-5 4 2 8-10M16 3h5v5"/></g>
<g font-family="-apple-system,BlinkMacSystemFont,'Segoe UI','Noto Sans CJK SC','Microsoft YaHei',sans-serif">
<text x="65" y="27" font-size="15.5" font-weight="650" fill="#ecf2fa">Relax</text>
<text x="337" y="26" text-anchor="end" font-size="9" font-family="ui-monospace,SFMono-Regular,Consolas,monospace" letter-spacing=".5" fill="#efc474">RL</text>
<text x="65" y="48" font-size="13" fill="#b7cbdc">A training ground for better next moves.</text>
<text x="65" y="68" font-size="11" fill="#94b0c5">Reinforcement learning · Training engine</text>
</g>
<path d="M329 65h8m-3-3 3 3-3 3" fill="none" stroke="#72d9cc" stroke-width="1.4" stroke-linecap="round" stroke-linejoin="round"/>
</svg>
